Coordinates
version=1
nRows=13
nColumns=40
inDegrees=yes

Units are S.I. units (second, meters, Newtons, ...)
Angles are in degrees.

endheader
time	pelvis_tilt	pelvis_list	pelvis_rotation	pelvis_tx	pelvis_ty	pelvis_tz	hip_flexion_r	hip_adduction_r	hip_rotation_r	knee_angle_r	knee_angle_r_beta	ankle_angle_r	subtalar_angle_r	mtp_angle_r	hip_flexion_l	hip_adduction_l	hip_rotation_l	knee_angle_l	knee_angle_l_beta	ankle_angle_l	subtalar_angle_l	mtp_angle_l	lumbar_extension	lumbar_bending	lumbar_rotation	arm_flex_r	arm_add_r	arm_rot_r	elbow_flex_r	pro_sup_r	wrist_flex_r	wrist_dev_r	arm_flex_l	arm_add_l	arm_rot_l	elbow_flex_l	pro_sup_l	wrist_flex_l	wrist_dev_l
     42.18250000	     -4.67864112	     -4.71339403	     -1.98327392	      1.01480592	      0.93335290	      0.42234168	     39.19756522	     -3.20924225	     -4.53493446	     64.07326815	     64.07326815	     -3.17428356	    -17.70091939	      3.35012414	     13.61664849	     -4.32713085	     -7.12419161	     20.45089383	     20.45089383	     13.29549670	    -13.82932090	      0.53227406	    -12.27789236	      6.50663612	      2.39781590	     -1.02149555	    -13.06247869	     -1.25357670	     27.23465340	     46.70006830	      0.00000000	      0.00000000	     18.67758976	    -15.94179933	      1.89302607	     57.38813181	     46.55815205	      0.00000000	      0.00000000
     42.19471429	     -4.75493399	     -4.76354090	     -2.15879256	      1.01435984	      0.93348771	      0.42248069	     39.58882449	     -2.95346140	     -4.61452971	     61.36412739	     61.36412739	     -2.78954582	    -17.25198057	      3.27814467	     12.95049862	     -4.37144984	     -7.28624503	     20.01253140	     20.01253140	     13.51457071	    -13.67693822	      0.51462543	    -12.37983845	      6.65801945	      2.71612414	     -2.74180585	    -13.21425170	     -1.11081921	     26.18189171	     46.71392020	      0.00000000	      0.00000000	     20.06246438	    -16.01324311	      1.37176921	     59.00930951	     46.64074129	      0.00000000	      0.00000000
     42.20692857	     -4.87046740	     -4.77964135	     -2.32719154	      1.01396164	      0.93343423	      0.42275984	     39.83645558	     -2.72953680	     -4.72726854	     58.32966364	     58.32966364	     -2.43510309	    -16.63881681	      2.95977861	     12.35486507	     -4.40229252	     -7.52048411	     19.63772127	     19.63772127	     13.78062468	    -13.43877206	      0.39656294	    -12.44211976	      6.73427573	      2.97859347	     -4.41999915	    -13.29801025	     -0.98637161	     25.28092365	     46.72242172	      0.00000000	      0.00000000	     21.26125873	    -16.17528539	      0.72950867	     61.11948638	     46.73855372	      0.00000000	      0.00000000
     42.21914286	     -4.98645189	     -4.76635430	     -2.49403135	      1.01362408	      0.93329896	      0.42313391	     39.88815100	     -2.54243183	     -4.88371757	     54.95505784	     54.95505784	     -2.23839753	    -15.83274618	      2.26848555	     11.77265163	     -4.42188596	     -7.82656843	     19.29437329	     19.29437329	     14.04146644	    -13.10909149	      0.21592929	    -12.51820312	      6.73316617	      3.07512670	     -6.03893817	    -13.35643836	     -0.89018608	     24.65685463	     46.71971111	      0.00000000	      0.00000000	     22.12928828	    -16.33486581	     -0.10075182	     63.82239694	     46.85948284	      0.00000000	      0.00000000
     42.23135714	     -5.18152958	     -4.79325846	     -2.59056671	      1.01338391	      0.93299294	      0.42352808	     39.70972089	     -2.34905669	     -5.19949396	     51.08741256	     51.08741256	     -2.50699375	    -15.13519103	      0.04668102	     11.30571737	     -4.49151983	     -8.06660175	     19.00000023	     19.00000023	     14.28786451	    -12.71013134	     -0.06646863	    -12.50315296	      6.81782037	      2.40605328	     -7.28530618	    -13.47572938	     -0.69892011	     24.79448457	     46.66676351	      0.00000000	      0.00000000	     21.96751693	    -16.92507176	     -1.82928733	     67.66481401	     47.07905411	      0.00000000	      0.00000000
     42.24357143	     -5.31867070	     -4.79016238	     -2.72157785	      1.01329076	      0.93266414	      0.42412402	     39.35407516	     -2.15269554	     -5.53033156	     47.14143451	     47.14143451	     -2.01437618	    -13.76789027	     -0.09876534	     10.73805161	     -4.51074657	     -8.24981056	     18.65968430	     18.65968430	     14.55832036	    -12.50968244	     -0.15300342	    -12.47387888	      6.84107522	      2.60417947	     -8.80215802	    -13.52634461	     -0.59627189	     24.30751051	     46.66088993	      0.00000000	      0.00000000	     23.13236127	    -16.96786535	     -2.29626051	     69.20147360	     47.15227116	      0.00000000	      0.00000000
     42.25578571	     -5.50956777	     -4.77852036	     -2.81373524	      1.01332104	      0.93221483	      0.42481804	     38.81110416	     -1.94227365	     -5.93241509	     42.90444130	     42.90444130	     -1.56055029	    -12.26091638	     -0.07777571	     10.24181363	     -4.53245492	     -8.40812835	     18.35587470	     18.35587470	     14.83906351	    -12.25227281	     -0.28496807	    -12.32177776	      6.84127094	      2.63508135	    -10.26389146	    -13.55034414	     -0.59090596	     24.06861304	     46.65303172	      0.00000000	      0.00000000	     24.11288202	    -17.08178769	     -2.72455237	     70.76194110	     47.21961702	      0.00000000	      0.00000000
     42.26800000	     -5.60287501	     -4.69890143	     -2.90333804	      1.01361832	      0.93164257	      0.42562505	     37.93615001	     -1.80405497	     -6.42625060	     38.47898302	     38.47898302	     -1.39096468	    -10.48972134	     -1.22808568	      9.62403015	     -4.53474463	     -8.84794986	     18.06952163	     18.06952163	     15.20751081	    -11.55860106	     -0.60233983	    -12.41912739	      6.73753585	      2.46243573	    -12.10845186	    -13.66196713	     -0.79395280	     25.72950142	     46.55574147	      0.00000000	      0.00000000	     24.17490154	    -17.25241081	     -4.08353132	     74.59984256	     47.41009031	      0.00000000	      0.00000000
     42.28021429	     -5.70400034	     -4.65118676	     -2.93142170	      1.01412808	      0.93101101	      0.42655883	     36.89041554	     -1.58398512	     -6.96883799	     34.03373620	     34.03373620	     -0.88218335	     -8.57081285	     -0.80964430	      8.99645552	     -4.52348444	     -8.99318083	     17.74995860	     17.74995860	     15.51886799	    -11.27054330	     -0.76286129	    -12.30527894	      6.68135729	      2.54997220	    -13.42568695	    -13.61524139	     -0.77784652	     25.59347554	     46.54316652	      0.00000000	      0.00000000	     25.10245816	    -17.26616890	     -4.38857498	     75.97966420	     47.46702356	      0.00000000	      0.00000000
     42.29242857	     -5.73146214	     -4.49201971	     -2.96110852	      1.01496808	      0.93022260	      0.42763473	     35.70695143	     -1.51599937	     -7.72162439	     29.85008158	     29.85008158	     -0.20265301	     -6.07976134	     -0.00023528	      8.22854800	     -4.42943820	     -9.37918334	     17.37041792	     17.37041792	     15.90953938	    -10.56708136	     -1.10814865	    -12.29267365	      6.43597075	      2.63305799	    -14.97161872	    -13.53969824	     -0.96560298	     26.37534030	     46.49781227	      0.00000000	      0.00000000	     25.67397163	    -17.20443774	     -4.87652977	     78.35655429	     47.55981342	      0.00000000	      0.00000000
     42.30464286	     -5.76939460	     -4.43671231	     -2.90360718	      1.01606090	      0.92931732	      0.42883498	     34.36816693	     -1.23277931	     -8.31156830	     25.76307765	     25.76307765	      0.22629490	     -4.26694722	      1.05088672	      7.50931657	     -4.42497081	     -9.48004748	     17.06300285	     17.06300285	     16.26791959	    -10.21357892	     -1.34167873	    -12.14265676	      6.33996509	      2.55042983	    -16.11753728	    -13.45971187	     -1.05844272	     26.58844933	     46.47988173	      0.00000000	      0.00000000	     26.29406035	    -17.26087451	     -5.11404338	     79.66539757	     47.60908439	      0.00000000	      0.00000000
     42.31685714	     -5.75533732	     -4.25051277	     -2.85939649	      1.01743692	      0.92819694	      0.43016504	     33.21241292	     -1.19581375	     -9.18772001	     22.65011028	     22.65011028	      1.62633046	     -1.68345604	      4.49625244	      6.69850189	     -4.34705674	     -9.96326411	     16.74675794	     16.74675794	     16.68188497	     -9.27464950	     -1.92688051	    -12.10110021	      6.06323346	      2.32568060	    -17.73063011	    -13.42775823	     -1.62320140	     28.92367202	     46.38091189	      0.00000000	      0.00000000	     26.30866459	    -17.42642598	     -5.76487891	     82.46976319	     47.73746127	      0.00000000	      0.00000000
     42.32907143	     -5.75688834	     -4.08936296	     -2.77575906	      1.01901137	      0.92702036	      0.43167938	     31.94658649	     -1.00396205	     -9.73726027	     19.67533227	     19.67533227	      1.83894356	     -0.29776573	      5.50576988	      5.85170114	     -4.22964214	    -10.07325436	     16.32705105	     16.32705105	     17.04859712	     -8.89775829	     -2.09930783	    -11.87021582	      5.78668644	      2.35729036	    -18.53613565	    -13.18880033	     -1.59896255	     28.90811317	     46.36829716	      0.00000000	      0.00000000	     26.94343462	    -17.30927925	     -5.81496318	     83.37985122	     47.76521296	      0.00000000	      0.00000000
